<?xml version="1.0" encoding="utf-8"?>
<!-- Generator: Adobe Illustrator 21.0.2, SVG Export Plug-In . SVG Version: 6.00 Build 0)  -->
<svg version="1.1" id="Layer_1" xmlns="http://www.w3.org/2000/svg" xmlns:xlink="http://www.w3.org/1999/xlink" x="0px" y="0px"
	 viewBox="0 0 460.3 191.9" style="enable-background:new 0 0 460.3 191.9;" xml:space="preserve">
<style type="text/css">
	.st0{fill:#02897B;}
	.st1{fill:#22A69A;}
	.st2{fill:#FFFFFF;}
	.st3{fill:#556F7B;}
</style>
<path class="st0" d="M411.3,66.5c0,36.9-27.4,66.8-124.7,66.8S110.6,66.5,110.6,66.5S189.4-0.4,286.6-0.4S411.3,29.6,411.3,66.5z"/>
<path class="st1" d="M436.3,151H24c-13.2,0-24-10.8-24-24l0,0c0-33.5,27.4-61,61-61h375.3c13.2,0,24,10.8,24,24v37
	C460.3,140.2,449.5,151,436.3,151z"/>
<circle class="st2" cx="107.9" cy="143.7" r="48.2"/>
<circle class="st3" cx="107.9" cy="143.7" r="25.3"/>
<circle class="st2" cx="386.2" cy="143.7" r="48.2"/>
<circle class="st3" cx="386.2" cy="143.7" r="25.3"/>
<path class="st2" d="M167,62.3c0,16.7,48.1,11.4,107.4,11.4c59.3,0,107.4,5.4,107.4-11.4c0-16.7-27.8-49.2-87.2-49.2
	C235.4,13.1,167,45.5,167,62.3z"/>
</svg>
