<?xml version="1.0" encoding="utf-8"?>
<!-- Generator: Adobe Illustrator 21.0.2, SVG Export Plug-In . SVG Version: 6.00 Build 0)  -->
<svg version="1.1" id="Layer_1" xmlns="http://www.w3.org/2000/svg" xmlns:xlink="http://www.w3.org/1999/xlink" x="0px" y="0px"
	 viewBox="0 0 76.4 105.9" style="enable-background:new 0 0 76.4 105.9;" xml:space="preserve">
<style type="text/css">
	.st0{fill:#8E6F64;}
	.st1{fill:#91B424;}
	.st2{opacity:0.19;fill:#FFFFFF;}
</style>
<rect x="34.9" y="60.7" class="st0" width="5.7" height="45.1"/>
<path class="st1" d="M-73.7,522.6c0.2-1.2,0.3-2.4,0.3-3.6c0-11.7-9.5-21.3-21.3-21.3c-11.7,0-21.3,9.5-21.3,21.3
	c0,1.2,0.1,2.4,0.3,3.6c-9.7,1.4-17.2,9.8-17.2,19.9c0,11.1,9,20.2,20.2,20.2c2.3,0,4.5-0.4,6.6-1.1c2.2,4.1,6.4,6.9,11.4,6.9
	c5,0,9.3-2.8,11.4-6.9c2.1,0.7,4.4,1.2,6.7,1.2c11.1,0,20.2-9,20.2-20.2C-56.3,532.4-63.9,523.9-73.7,522.6z"/>
<path class="st2" d="M-94.6,497.7C-94.6,497.7-94.6,497.7-94.6,497.7c-11.8,0-21.3,9.5-21.3,21.3c0,1.2,0.1,2.4,0.3,3.6
	c-9.7,1.4-17.2,9.8-17.2,19.9c0,11.1,9,20.2,20.2,20.2c2.3,0,4.5-0.4,6.6-1.1c2.2,4.1,6.4,6.9,11.4,6.9c0,0,0,0,0.1,0V497.7z"/>
<g>
	<path class="st1" d="M59.1,24.8c0.2-1.2,0.3-2.4,0.3-3.6C59.4,9.5,49.9,0,38.2,0C26.4,0,16.9,9.5,16.9,21.3c0,1.2,0.1,2.4,0.3,3.6
		C7.5,26.3,0,34.7,0,44.8c0,11.1,9,20.2,20.2,20.2c2.3,0,4.5-0.4,6.6-1.1c2.2,4.1,6.4,6.9,11.4,6.9c5,0,9.3-2.8,11.4-6.9
		c2.1,0.7,4.4,1.2,6.7,1.2c11.1,0,20.2-9,20.2-20.2C76.4,34.6,68.9,26.2,59.1,24.8z"/>
	<path class="st2" d="M38.2,0C38.2,0,38.2,0,38.2,0C26.4,0,16.9,9.5,16.9,21.3c0,1.2,0.1,2.4,0.3,3.6C7.5,26.3,0,34.7,0,44.8
		c0,11.1,9,20.2,20.2,20.2c2.3,0,4.5-0.4,6.6-1.1c2.2,4.1,6.4,6.9,11.4,6.9c0,0,0,0,0.1,0V0z"/>
</g>
</svg>
